<svg xmlns="http://www.w3.org/2000/svg" viewBox="0 0 100 100" role="img" aria-label="Get in Touch">
  <rect width="100" height="100" rx="22" fill="#0B0B0B"/>
  <path fill="#FFFFFF" d="M50 14c2.6 0 4.7 2.1 4.7 4.7v20.2l14.3-14.3a4.7 4.7 0 1 1 6.6 6.6L61.3 45.5h20.2a4.7 4.7 0 1 1 0 9.4H61.3l14.3 14.3a4.7 4.7 0 1 1-6.6 6.6L54.7 61.5v20.2a4.7 4.7 0 1 1-9.4 0V61.5L31 75.8a4.7 4.7 0 1 1-6.6-6.6l14.3-14.3H18.5a4.7 4.7 0 1 1 0-9.4h20.2L24.4 31.2a4.7 4.7 0 1 1 6.6-6.6l14.3 14.3V18.7c0-2.6 2.1-4.7 4.7-4.7z"/>
</svg>
